<svg width="50" height="50" viewBox="0 0 50 50" fill="none" xmlns="http://www.w3.org/2000/svg">
<path d="M14.5833 14.5833H12.5C11.3949 14.5833 10.3351 15.0222 9.5537 15.8036C8.7723 16.585 8.33331 17.6449 8.33331 18.7499V37.4999C8.33331 38.605 8.7723 39.6648 9.5537 40.4462C10.3351 41.2276 11.3949 41.6666 12.5 41.6666H31.25C32.3551 41.6666 33.4149 41.2276 34.1963 40.4462C34.9777 39.6648 35.4166 38.605 35.4166 37.4999V35.4166" stroke="black" stroke-width="2" stroke-linecap="round" stroke-linejoin="round"/>
<path d="M33.3333 10.4166L39.5833 16.6666M42.4687 13.7187C43.2892 12.8982 43.7502 11.7854 43.7502 10.625C43.7502 9.4646 43.2892 8.35174 42.4687 7.53123C41.6482 6.71072 40.5354 6.24976 39.375 6.24976C38.2146 6.24976 37.1017 6.71072 36.2812 7.53123L18.75 25V31.25H25L42.4687 13.7187Z" stroke="black" stroke-width="2" stroke-linecap="round" stroke-linejoin="round"/>
</svg>
