<svg width="257" height="100" viewBox="0 0 257 100" fill="none" xmlns="http://www.w3.org/2000/svg">
<path d="M49.9583 87.5C44.7861 87.5 39.925 86.5139 35.375 84.5417C30.825 82.5694 26.8611 79.8958 23.4833 76.5208C20.1028 73.1458 17.4278 69.1806 15.4583 64.625C13.4861 60.0667 12.5 55.1958 12.5 50.0125C12.5 44.8292 13.4847 39.9542 15.4542 35.3875C17.4236 30.8236 20.0958 26.8528 23.4708 23.475C26.8458 20.0972 30.8139 17.4236 35.375 15.4542C39.9389 13.4847 44.8139 12.5 50 12.5C54.2639 12.5 58.2986 13.1597 62.1042 14.4792C65.9097 15.7986 69.3806 17.6389 72.5167 20L69.5167 23.1C66.7722 21.0611 63.7528 19.4778 60.4583 18.35C57.1639 17.2278 53.6778 16.6667 50 16.6667C40.7639 16.6667 32.8986 19.9139 26.4042 26.4083C19.9097 32.9028 16.6639 40.7667 16.6667 50C16.6667 59.2361 19.9139 67.1014 26.4083 73.5958C32.9028 80.0903 40.7667 83.3361 50 83.3333C52.4361 83.3333 54.8028 83.0722 57.1 82.55C59.3972 82.025 61.5972 81.3 63.7 80.375L66.825 83.525C64.2972 84.8083 61.6194 85.7917 58.7917 86.475C55.9583 87.1583 53.0139 87.5 49.9583 87.5ZM81.25 81.25V68.75H68.75V64.5833H81.25V52.0833H85.4167V64.5833H97.9167V68.75H85.4167V81.25H81.25ZM44.0083 66.2833L29.1833 51.4583L32.1333 48.5083L44.0083 60.3833L84.55 19.8167L87.5 22.7625L44.0083 66.2833Z" fill="#8F5FBC"/>
<path d="M105.531 40C107.625 39.5625 109.094 38.4766 109.938 36.7422L109.984 36.5312L114.906 3.64844L127.539 32.1016L139.633 3.64844L144.531 36.5312L144.578 36.7422C145.422 38.4766 146.891 39.5625 148.984 40H135.438C138.422 38.8906 139.914 37.8359 139.914 36.8359C139.914 36.8047 139.914 36.7656 139.914 36.7188L139.891 36.5312L136.82 16.3047L126.156 40.9375L115.375 16.0938L112.609 36.5312L112.586 36.8125C112.617 37.75 114.109 38.8125 117.062 40H105.531ZM147.578 14.7578H161.125C158.141 16.0859 156.648 17.1094 156.648 17.8281C156.648 17.8906 156.664 17.9531 156.695 18.0156L156.766 18.2266L162.625 34.0469L168.93 18.2266L169 17.9922C169.031 17.8828 169.047 17.7969 169.047 17.7344C168.969 16.7969 167.477 15.8047 164.57 14.7578H176.172C174.25 15.1328 172.789 16.2266 171.789 18.0391L171.719 18.2266L160.75 45.625L160.469 46.3281C159.406 48.7031 157.766 49.9766 155.547 50.1484C155.453 50.1484 155.352 50.1484 155.242 50.1484C155.148 50.1484 155.055 50.1484 154.961 50.1484C153.117 50.1484 151.445 49.3906 149.945 47.875C149.305 47.125 148.984 46.3828 148.984 45.6484C148.984 44.7578 149.266 44.0312 149.828 43.4688C150.422 42.875 151.148 42.5781 152.008 42.5781C152.852 42.5781 153.578 42.9062 154.188 43.5625C154.797 44.2188 155.102 44.9688 155.102 45.8125C155.102 46.5312 154.836 47.1719 154.305 47.7344C154.742 47.9219 155.148 48.0156 155.523 48.0156C156.133 48 156.656 47.7656 157.094 47.3125L157.656 46.5625C158.641 44.1562 159.438 42.1094 160.047 40.4219L152.031 18.2266L152.008 18.1562L151.938 17.9453C150.938 16.1953 149.484 15.1328 147.578 14.7578ZM113.219 90C115.156 89.625 116.625 88.5312 117.625 86.7188L117.672 86.5312V56.9766H110.945L110.617 57C109.508 57.1094 107.344 58.8203 104.125 62.1328L108.484 54.5859H131.5L135.859 62.1328C132.641 58.8203 130.477 57.1094 129.367 57L129.039 56.9766H122.312V86.5312L122.359 86.7422C123.203 88.4766 124.672 89.5625 126.766 90H113.219ZM141.648 77.2969C141.648 80.8125 142.039 83.4062 142.82 85.0781C143.836 87.25 145.227 88.3359 146.992 88.3359C147.227 88.3359 147.461 88.3359 147.695 88.3359C148.992 88.3359 150.242 87.7344 151.445 86.5312L151.68 86.1797C151.914 85.9297 152.031 85.4062 152.031 84.6094V70.1484C152.031 69.3516 151.922 68.8281 151.703 68.5781L151.469 68.2266C150.266 67.0234 149.016 66.4219 147.719 66.4219C147.484 66.4219 147.25 66.4219 147.016 66.4219C145.25 66.4219 143.859 67.5078 142.844 69.6797C142.047 71.3828 141.648 73.9219 141.648 77.2969ZM136.562 77.0859C136.562 74.7734 137.023 72.625 137.945 70.6406C138.867 68.6406 140.133 67.0703 141.742 65.9297C143.398 64.7578 145.258 64.1719 147.32 64.1719C149.117 64.1719 151.328 64.6328 153.953 65.5547C157.719 66.8828 160.109 67.7734 161.125 68.2266C160.781 68.2422 159.875 68.4141 158.406 68.7422C157.781 68.8828 157.305 69.0781 156.977 69.3281C156.773 69.4844 156.672 69.7578 156.672 70.1484V84.6094C156.672 85.0156 156.766 85.2891 156.953 85.4297C157.281 85.6797 157.758 85.875 158.383 86.0156C159.852 86.3438 160.758 86.5156 161.102 86.5312C160.086 86.9844 157.695 87.875 153.93 89.2031C151.305 90.125 149.094 90.5859 147.297 90.5859C145.234 90.5859 143.375 90 141.719 88.8281C140.109 87.6875 138.844 86.1172 137.922 84.1172C137.016 82.1641 136.562 79.8203 136.562 77.0859ZM164.172 83.8594C164.172 83 164.469 82.2734 165.062 81.6797C165.656 81.0703 166.375 80.7656 167.219 80.7656C168.062 80.7656 168.781 81.0703 169.375 81.6797C169.969 82.2734 170.266 83 170.266 83.8594C170.266 84.6562 169.969 85.3906 169.375 86.0625C169.25 86.2031 169.109 86.3359 168.953 86.4609L169.234 86.6953C170.641 87.7578 172.273 88.2891 174.133 88.2891C174.148 88.2891 174.172 88.2891 174.203 88.2891C175.688 88.2891 176.914 87.8984 177.883 87.1172C178.727 86.4297 179.18 85.2344 179.242 83.5312V83.0859C179.164 81.4141 178.375 80.3281 176.875 79.8281L170.5 77.9531C168.109 77.25 166.609 75.5547 166 72.8672C165.938 72.3984 165.906 71.9375 165.906 71.4844C165.906 69.9375 166.523 68.4062 167.758 66.8906C169.242 65.0781 171.312 64.1719 173.969 64.1719C176.453 64.1719 178.57 65 180.32 66.6562C180.898 67.2031 181.344 67.7656 181.656 68.3438C181.891 68.7812 182.008 69.2812 182.008 69.8438C182.008 70.6875 181.711 71.4141 181.117 72.0234C180.523 72.6328 179.805 72.9375 178.961 72.9375C178.117 72.9375 177.398 72.6328 176.805 72.0234C176.211 71.4141 175.914 70.6797 175.914 69.8203C175.914 68.9609 176.211 68.2344 176.805 67.6406L177.25 67.3359C176.297 66.8047 175.211 66.5391 173.992 66.5391H173.922C172.875 66.6172 171.93 67.0078 171.086 67.7109C170.398 68.4297 170.055 69.4531 170.055 70.7812C170.055 70.8906 170.055 71 170.055 71.1094C170.055 72.4219 170.719 73.3594 172.047 73.9219L177.602 75.375C179.227 75.9688 180.438 76.6094 181.234 77.2969C182.734 78.5938 183.5 80.5391 183.531 83.1328C183.375 85.0547 182.516 86.8281 180.953 88.4531C179.562 89.875 177.273 90.5859 174.086 90.5859C171.289 90.5859 168.836 89.6797 166.727 87.8672C165.633 86.9141 164.914 86.1016 164.57 85.4297C164.477 85.2422 164.406 85.0859 164.359 84.9609C164.234 84.6328 164.172 84.2656 164.172 83.8594ZM186.578 90C188.516 89.625 189.984 88.5312 190.984 86.7188L191.031 86.5312V59.2031C191.031 58.8125 190.93 58.5391 190.727 58.3828C190.398 58.1172 189.891 57.9219 189.203 57.7969C187.578 57.4688 186.703 57.2969 186.578 57.2812C186.719 57.2188 189.109 56.3281 193.75 54.6094C194.172 54.4531 194.812 54.25 195.672 54V79.125L205.211 67.5234L205.398 67.2656C205.461 67.1562 205.492 67.0234 205.492 66.8672C205.492 66.2578 204.141 65.5547 201.438 64.7578H212.477C211.367 65.0859 209.938 66.1719 208.188 68.0156L208.023 68.2266L199.844 78.0469H203.406L211.492 86.9062L211.562 87L211.656 87.0938C213.469 88.6094 215.055 89.5781 216.414 90H200.594C203.859 89.2031 205.492 88.3516 205.492 87.4453C205.492 87.2109 205.383 86.9766 205.164 86.7422L204.953 86.5312L198.508 79.6406L195.672 83.0391V86.5312L195.719 86.7422C196.562 88.4766 198.031 89.5625 200.125 90H186.578ZM217.609 83.8594C217.609 83 217.906 82.2734 218.5 81.6797C219.094 81.0703 219.812 80.7656 220.656 80.7656C221.5 80.7656 222.219 81.0703 222.812 81.6797C223.406 82.2734 223.703 83 223.703 83.8594C223.703 84.6562 223.406 85.3906 222.812 86.0625C222.688 86.2031 222.547 86.3359 222.391 86.4609L222.672 86.6953C224.078 87.7578 225.711 88.2891 227.57 88.2891C227.586 88.2891 227.609 88.2891 227.641 88.2891C229.125 88.2891 230.352 87.8984 231.32 87.1172C232.164 86.4297 232.617 85.2344 232.68 83.5312V83.0859C232.602 81.4141 231.812 80.3281 230.312 79.8281L223.938 77.9531C221.547 77.25 220.047 75.5547 219.438 72.8672C219.375 72.3984 219.344 71.9375 219.344 71.4844C219.344 69.9375 219.961 68.4062 221.195 66.8906C222.68 65.0781 224.75 64.1719 227.406 64.1719C229.891 64.1719 232.008 65 233.758 66.6562C234.336 67.2031 234.781 67.7656 235.094 68.3438C235.328 68.7812 235.445 69.2812 235.445 69.8438C235.445 70.6875 235.148 71.4141 234.555 72.0234C233.961 72.6328 233.242 72.9375 232.398 72.9375C231.555 72.9375 230.836 72.6328 230.242 72.0234C229.648 71.4141 229.352 70.6797 229.352 69.8203C229.352 68.9609 229.648 68.2344 230.242 67.6406L230.688 67.3359C229.734 66.8047 228.648 66.5391 227.43 66.5391H227.359C226.312 66.6172 225.367 67.0078 224.523 67.7109C223.836 68.4297 223.492 69.4531 223.492 70.7812C223.492 70.8906 223.492 71 223.492 71.1094C223.492 72.4219 224.156 73.3594 225.484 73.9219L231.039 75.375C232.664 75.9688 233.875 76.6094 234.672 77.2969C236.172 78.5938 236.938 80.5391 236.969 83.1328C236.812 85.0547 235.953 86.8281 234.391 88.4531C233 89.875 230.711 90.5859 227.523 90.5859C224.727 90.5859 222.273 89.6797 220.164 87.8672C219.07 86.9141 218.352 86.1016 218.008 85.4297C217.914 85.2422 217.844 85.0859 217.797 84.9609C217.672 84.6328 217.609 84.2656 217.609 83.8594Z" fill="#8F5FBC"/>
<path d="M49.9583 87.5C44.7861 87.5 39.925 86.5139 35.375 84.5417C30.825 82.5694 26.8611 79.8958 23.4833 76.5208C20.1028 73.1458 17.4278 69.1806 15.4583 64.625C13.4861 60.0667 12.5 55.1958 12.5 50.0125C12.5 44.8292 13.4847 39.9542 15.4542 35.3875C17.4236 30.8236 20.0958 26.8528 23.4708 23.475C26.8458 20.0972 30.8139 17.4236 35.375 15.4542C39.9389 13.4847 44.8139 12.5 50 12.5C54.2639 12.5 58.2986 13.1597 62.1042 14.4792C65.9097 15.7986 69.3806 17.6389 72.5167 20L69.5167 23.1C66.7722 21.0611 63.7528 19.4778 60.4583 18.35C57.1639 17.2278 53.6778 16.6667 50 16.6667C40.7639 16.6667 32.8986 19.9139 26.4042 26.4083C19.9097 32.9028 16.6639 40.7667 16.6667 50C16.6667 59.2361 19.9139 67.1014 26.4083 73.5958C32.9028 80.0903 40.7667 83.3361 50 83.3333C52.4361 83.3333 54.8028 83.0722 57.1 82.55C59.3972 82.025 61.5972 81.3 63.7 80.375L66.825 83.525C64.2972 84.8083 61.6194 85.7917 58.7917 86.475C55.9583 87.1583 53.0139 87.5 49.9583 87.5ZM81.25 81.25V68.75H68.75V64.5833H81.25V52.0833H85.4167V64.5833H97.9167V68.75H85.4167V81.25H81.25ZM44.0083 66.2833L29.1833 51.4583L32.1333 48.5083L44.0083 60.3833L84.55 19.8167L87.5 22.7625L44.0083 66.2833Z" fill="#8F5FBC"/>
<path d="M105.531 40C107.625 39.5625 109.094 38.4766 109.938 36.7422L109.984 36.5312L114.906 3.64844L127.539 32.1016L139.633 3.64844L144.531 36.5312L144.578 36.7422C145.422 38.4766 146.891 39.5625 148.984 40H135.438C138.422 38.8906 139.914 37.8359 139.914 36.8359C139.914 36.8047 139.914 36.7656 139.914 36.7188L139.891 36.5312L136.82 16.3047L126.156 40.9375L115.375 16.0938L112.609 36.5312L112.586 36.8125C112.617 37.75 114.109 38.8125 117.062 40H105.531ZM147.578 14.7578H161.125C158.141 16.0859 156.648 17.1094 156.648 17.8281C156.648 17.8906 156.664 17.9531 156.695 18.0156L156.766 18.2266L162.625 34.0469L168.93 18.2266L169 17.9922C169.031 17.8828 169.047 17.7969 169.047 17.7344C168.969 16.7969 167.477 15.8047 164.57 14.7578H176.172C174.25 15.1328 172.789 16.2266 171.789 18.0391L171.719 18.2266L160.75 45.625L160.469 46.3281C159.406 48.7031 157.766 49.9766 155.547 50.1484C155.453 50.1484 155.352 50.1484 155.242 50.1484C155.148 50.1484 155.055 50.1484 154.961 50.1484C153.117 50.1484 151.445 49.3906 149.945 47.875C149.305 47.125 148.984 46.3828 148.984 45.6484C148.984 44.7578 149.266 44.0312 149.828 43.4688C150.422 42.875 151.148 42.5781 152.008 42.5781C152.852 42.5781 153.578 42.9062 154.188 43.5625C154.797 44.2188 155.102 44.9688 155.102 45.8125C155.102 46.5312 154.836 47.1719 154.305 47.7344C154.742 47.9219 155.148 48.0156 155.523 48.0156C156.133 48 156.656 47.7656 157.094 47.3125L157.656 46.5625C158.641 44.1562 159.438 42.1094 160.047 40.4219L152.031 18.2266L152.008 18.1562L151.938 17.9453C150.938 16.1953 149.484 15.1328 147.578 14.7578ZM113.219 90C115.156 89.625 116.625 88.5312 117.625 86.7188L117.672 86.5312V56.9766H110.945L110.617 57C109.508 57.1094 107.344 58.8203 104.125 62.1328L108.484 54.5859H131.5L135.859 62.1328C132.641 58.8203 130.477 57.1094 129.367 57L129.039 56.9766H122.312V86.5312L122.359 86.7422C123.203 88.4766 124.672 89.5625 126.766 90H113.219ZM141.648 77.2969C141.648 80.8125 142.039 83.4062 142.82 85.0781C143.836 87.25 145.227 88.3359 146.992 88.3359C147.227 88.3359 147.461 88.3359 147.695 88.3359C148.992 88.3359 150.242 87.7344 151.445 86.5312L151.68 86.1797C151.914 85.9297 152.031 85.4062 152.031 84.6094V70.1484C152.031 69.3516 151.922 68.8281 151.703 68.5781L151.469 68.2266C150.266 67.0234 149.016 66.4219 147.719 66.4219C147.484 66.4219 147.25 66.4219 147.016 66.4219C145.25 66.4219 143.859 67.5078 142.844 69.6797C142.047 71.3828 141.648 73.9219 141.648 77.2969ZM136.562 77.0859C136.562 74.7734 137.023 72.625 137.945 70.6406C138.867 68.6406 140.133 67.0703 141.742 65.9297C143.398 64.7578 145.258 64.1719 147.32 64.1719C149.117 64.1719 151.328 64.6328 153.953 65.5547C157.719 66.8828 160.109 67.7734 161.125 68.2266C160.781 68.2422 159.875 68.4141 158.406 68.7422C157.781 68.8828 157.305 69.0781 156.977 69.3281C156.773 69.4844 156.672 69.7578 156.672 70.1484V84.6094C156.672 85.0156 156.766 85.2891 156.953 85.4297C157.281 85.6797 157.758 85.875 158.383 86.0156C159.852 86.3438 160.758 86.5156 161.102 86.5312C160.086 86.9844 157.695 87.875 153.93 89.2031C151.305 90.125 149.094 90.5859 147.297 90.5859C145.234 90.5859 143.375 90 141.719 88.8281C140.109 87.6875 138.844 86.1172 137.922 84.1172C137.016 82.1641 136.562 79.8203 136.562 77.0859ZM164.172 83.8594C164.172 83 164.469 82.2734 165.062 81.6797C165.656 81.0703 166.375 80.7656 167.219 80.7656C168.062 80.7656 168.781 81.0703 169.375 81.6797C169.969 82.2734 170.266 83 170.266 83.8594C170.266 84.6562 169.969 85.3906 169.375 86.0625C169.25 86.2031 169.109 86.3359 168.953 86.4609L169.234 86.6953C170.641 87.7578 172.273 88.2891 174.133 88.2891C174.148 88.2891 174.172 88.2891 174.203 88.2891C175.688 88.2891 176.914 87.8984 177.883 87.1172C178.727 86.4297 179.18 85.2344 179.242 83.5312V83.0859C179.164 81.4141 178.375 80.3281 176.875 79.8281L170.5 77.9531C168.109 77.25 166.609 75.5547 166 72.8672C165.938 72.3984 165.906 71.9375 165.906 71.4844C165.906 69.9375 166.523 68.4062 167.758 66.8906C169.242 65.0781 171.312 64.1719 173.969 64.1719C176.453 64.1719 178.57 65 180.32 66.6562C180.898 67.2031 181.344 67.7656 181.656 68.3438C181.891 68.7812 182.008 69.2812 182.008 69.8438C182.008 70.6875 181.711 71.4141 181.117 72.0234C180.523 72.6328 179.805 72.9375 178.961 72.9375C178.117 72.9375 177.398 72.6328 176.805 72.0234C176.211 71.4141 175.914 70.6797 175.914 69.8203C175.914 68.9609 176.211 68.2344 176.805 67.6406L177.25 67.3359C176.297 66.8047 175.211 66.5391 173.992 66.5391H173.922C172.875 66.6172 171.93 67.0078 171.086 67.7109C170.398 68.4297 170.055 69.4531 170.055 70.7812C170.055 70.8906 170.055 71 170.055 71.1094C170.055 72.4219 170.719 73.3594 172.047 73.9219L177.602 75.375C179.227 75.9688 180.438 76.6094 181.234 77.2969C182.734 78.5938 183.5 80.5391 183.531 83.1328C183.375 85.0547 182.516 86.8281 180.953 88.4531C179.562 89.875 177.273 90.5859 174.086 90.5859C171.289 90.5859 168.836 89.6797 166.727 87.8672C165.633 86.9141 164.914 86.1016 164.57 85.4297C164.477 85.2422 164.406 85.0859 164.359 84.9609C164.234 84.6328 164.172 84.2656 164.172 83.8594ZM186.578 90C188.516 89.625 189.984 88.5312 190.984 86.7188L191.031 86.5312V59.2031C191.031 58.8125 190.93 58.5391 190.727 58.3828C190.398 58.1172 189.891 57.9219 189.203 57.7969C187.578 57.4688 186.703 57.2969 186.578 57.2812C186.719 57.2188 189.109 56.3281 193.75 54.6094C194.172 54.4531 194.812 54.25 195.672 54V79.125L205.211 67.5234L205.398 67.2656C205.461 67.1562 205.492 67.0234 205.492 66.8672C205.492 66.2578 204.141 65.5547 201.438 64.7578H212.477C211.367 65.0859 209.938 66.1719 208.188 68.0156L208.023 68.2266L199.844 78.0469H203.406L211.492 86.9062L211.562 87L211.656 87.0938C213.469 88.6094 215.055 89.5781 216.414 90H200.594C203.859 89.2031 205.492 88.3516 205.492 87.4453C205.492 87.2109 205.383 86.9766 205.164 86.7422L204.953 86.5312L198.508 79.6406L195.672 83.0391V86.5312L195.719 86.7422C196.562 88.4766 198.031 89.5625 200.125 90H186.578ZM217.609 83.8594C217.609 83 217.906 82.2734 218.5 81.6797C219.094 81.0703 219.812 80.7656 220.656 80.7656C221.5 80.7656 222.219 81.0703 222.812 81.6797C223.406 82.2734 223.703 83 223.703 83.8594C223.703 84.6562 223.406 85.3906 222.812 86.0625C222.688 86.2031 222.547 86.3359 222.391 86.4609L222.672 86.6953C224.078 87.7578 225.711 88.2891 227.57 88.2891C227.586 88.2891 227.609 88.2891 227.641 88.2891C229.125 88.2891 230.352 87.8984 231.32 87.1172C232.164 86.4297 232.617 85.2344 232.68 83.5312V83.0859C232.602 81.4141 231.812 80.3281 230.312 79.8281L223.938 77.9531C221.547 77.25 220.047 75.5547 219.438 72.8672C219.375 72.3984 219.344 71.9375 219.344 71.4844C219.344 69.9375 219.961 68.4062 221.195 66.8906C222.68 65.0781 224.75 64.1719 227.406 64.1719C229.891 64.1719 232.008 65 233.758 66.6562C234.336 67.2031 234.781 67.7656 235.094 68.3438C235.328 68.7812 235.445 69.2812 235.445 69.8438C235.445 70.6875 235.148 71.4141 234.555 72.0234C233.961 72.6328 233.242 72.9375 232.398 72.9375C231.555 72.9375 230.836 72.6328 230.242 72.0234C229.648 71.4141 229.352 70.6797 229.352 69.8203C229.352 68.9609 229.648 68.2344 230.242 67.6406L230.688 67.3359C229.734 66.8047 228.648 66.5391 227.43 66.5391H227.359C226.312 66.6172 225.367 67.0078 224.523 67.7109C223.836 68.4297 223.492 69.4531 223.492 70.7812C223.492 70.8906 223.492 71 223.492 71.1094C223.492 72.4219 224.156 73.3594 225.484 73.9219L231.039 75.375C232.664 75.9688 233.875 76.6094 234.672 77.2969C236.172 78.5938 236.938 80.5391 236.969 83.1328C236.812 85.0547 235.953 86.8281 234.391 88.4531C233 89.875 230.711 90.5859 227.523 90.5859C224.727 90.5859 222.273 89.6797 220.164 87.8672C219.07 86.9141 218.352 86.1016 218.008 85.4297C217.914 85.2422 217.844 85.0859 217.797 84.9609C217.672 84.6328 217.609 84.2656 217.609 83.8594Z" fill="#8F5FBC"/>
</svg>
