<svg width="60" height="60" viewBox="0 0 60 60" fill="none" xmlns="http://www.w3.org/2000/svg">
<path d="M51.9563 17.4188L42.5813 8.04378C42.4061 7.87 42.1983 7.73252 41.9698 7.63921C41.7414 7.5459 41.4968 7.4986 41.25 7.50003H11.25C10.2554 7.50003 9.30161 7.89512 8.59835 8.59838C7.89509 9.30164 7.5 10.2555 7.5 11.25V48.75C7.5 49.7446 7.89509 50.6984 8.59835 51.4017C9.30161 52.1049 10.2554 52.5 11.25 52.5H48.75C49.7446 52.5 50.6984 52.1049 51.4017 51.4017C52.1049 50.6984 52.5 49.7446 52.5 48.75V18.75C52.5014 18.5033 52.4541 18.2587 52.3608 18.0302C52.2675 17.8018 52.13 17.594 51.9563 17.4188ZM22.5 11.25H37.5V18.75H22.5V11.25ZM37.5 48.75H22.5V33.75H37.5V48.75ZM41.25 48.75V33.75C41.25 32.7555 40.8549 31.8016 40.1517 31.0984C39.4484 30.3951 38.4946 30 37.5 30H22.5C21.5054 30 20.5516 30.3951 19.8484 31.0984C19.1451 31.8016 18.75 32.7555 18.75 33.75V48.75H11.25V11.25H18.75V18.75C18.75 19.7446 19.1451 20.6984 19.8484 21.4017C20.5516 22.1049 21.5054 22.5 22.5 22.5H37.5C38.4946 22.5 39.4484 22.1049 40.1517 21.4017C40.8549 20.6984 41.25 19.7446 41.25 18.75V12.0188L48.75 19.5188V48.75H41.25Z" fill="black"/>
</svg>
