<svg width="60" height="60" viewBox="0 0 60 60" fill="none" xmlns="http://www.w3.org/2000/svg">
<path d="M10 25L8.23253 26.7675L6.46503 25L8.23253 23.2325L10 25ZM52.5 45C52.5 45.663 52.2366 46.2989 51.7678 46.7678C51.299 47.2366 50.6631 47.5 50 47.5C49.337 47.5 48.7011 47.2366 48.2323 46.7678C47.7634 46.2989 47.5 45.663 47.5 45H52.5ZM20.7325 39.2675L8.23253 26.7675L11.7675 23.2325L24.2675 35.7325L20.7325 39.2675ZM8.23253 23.2325L20.7325 10.7325L24.2675 14.2675L11.7675 26.7675L8.23253 23.2325ZM10 22.5H35V27.5H10V22.5ZM52.5 40V45H47.5V40H52.5ZM35 22.5C39.6413 22.5 44.0925 24.3437 47.3744 27.6256C50.6563 30.9075 52.5 35.3587 52.5 40H47.5C47.5 36.6848 46.1831 33.5054 43.8389 31.1611C41.4947 28.8169 38.3152 27.5 35 27.5V22.5Z" fill="black"/>
</svg>
